<?xml version="1.0" standalone="no"?>
<!DOCTYPE svg PUBLIC "-//W3C//DTD SVG 20010904//EN"
 "http://www.w3.org/TR/2001/REC-SVG-20010904/DTD/svg10.dtd">
<svg version="1.0" xmlns="http://www.w3.org/2000/svg"
 width="500.000000pt" height="500.000000pt" viewBox="0 0 500.000000 500.000000"
 preserveAspectRatio="xMidYMid meet">
<metadata>
Created by potrace 1.11, written by Peter Selinger 2001-2013
</metadata>
<g transform="translate(0.000000,500.000000) scale(0.100000,-0.100000)"
fill="#000000" stroke="none">
<path d="M0 2500 l0 -2500 2500 0 2500 0 0 2500 0 2500 -2500 0 -2500 0 0
-2500z m1640 2009 c4 -13 4 -35 0 -49 -6 -22 -15 -27 -75 -37 -147 -27 -149
-31 -153 -433 -3 -267 -1 -318 12 -335 14 -19 26 -20 434 -20 350 0 422 2 436
14 16 14 17 41 14 335 -4 354 -8 380 -66 410 -16 8 -60 20 -98 26 -37 6 -74
16 -81 22 -14 11 -17 66 -5 83 10 14 914 14 924 0 12 -16 9 -72 -4 -83 -7 -6
-39 -15 -70 -21 -80 -14 -117 -36 -136 -79 -15 -34 -17 -110 -17 -827 0 -745
1 -792 18 -827 22 -43 56 -61 147 -79 36 -7 68 -17 72 -23 4 -6 6 -45 5 -86
-2 -67 2 -83 30 -141 68 -137 190 -267 305 -323 233 -114 484 7 505 243 10
111 -38 223 -136 322 -71 70 -118 102 -273 185 -157 85 -228 135 -309 221
-117 125 -161 229 -162 383 0 52 6 117 12 145 48 200 211 352 447 417 66 18
107 22 254 22 166 1 182 -1 317 -33 l142 -34 15 -67 c33 -145 47 -365 24 -388
-7 -7 -31 -12 -54 -12 l-42 0 -51 104 c-64 132 -135 212 -229 258 -59 29 -76
33 -147 32 -63 0 -91 -5 -135 -25 -173 -80 -220 -279 -102 -434 57 -75 135
-132 303 -220 197 -104 279 -158 359 -239 132 -133 184 -260 184 -441 0 -132
-23 -219 -82 -310 -130 -200 -338 -300 -647 -312 -160 -6 -292 10 -420 51
-122 40 -156 62 -178 121 -81 212 -168 330 -285 387 -59 29 -76 33 -147 32
-63 0 -91 -5 -135 -25 -173 -80 -220 -279 -102 -434 57 -76 135 -132 303 -220
196 -103 279 -158 358 -237 131 -132 185 -262 185 -443 0 -132 -23 -219 -82
-310 -127 -196 -335 -298 -633 -312 -202 -9 -410 26 -540 93 -41 20 -55 34
-71 71 -32 72 -58 223 -61 345 -2 112 -2 112 25 127 47 27 74 7 111 -79 94
-217 269 -379 441 -411 155 -28 311 46 366 173 61 143 22 298 -109 429 -71 70
-118 102 -273 185 -157 85 -228 135 -309 221 -117 125 -161 229 -162 383 0
111 13 171 54 257 33 70 116 165 176 202 37 24 38 26 38 80 l0 56 74 12 c87
15 117 32 139 81 14 32 17 88 20 392 1 223 -1 361 -7 370 -9 13 -70 15 -427
18 -369 2 -419 1 -441 -13 l-25 -16 4 -357 c4 -394 7 -415 66 -446 17 -9 68
-21 113 -28 76 -12 84 -15 89 -38 4 -14 4 -36 0 -50 l-6 -24 -472 -1 c-510 0
-482 -3 -482 55 0 38 14 46 93 58 82 13 113 31 135 80 15 34 17 111 17 827 0
716 -2 793 -17 827 -22 49 -53 67 -135 80 -79 12 -93 20 -93 58 0 58 -27 55
462 54 l452 0 6 -25z"/>
</g>
</svg>
